<svg version="1.2" xmlns="http://www.w3.org/2000/svg" viewBox="0 0 401 428" width="401" height="428">
	<title>letter_l_with_square_shape_dots_and_lines_logotype</title>
	<defs>
		<linearGradient id="g1" x1="360.6" y1="248.2" x2="38.5" y2="248.2" gradientUnits="userSpaceOnUse">
			<stop offset="0" stop-color="#00d0ff"/>
			<stop offset="1" stop-color="#0076ff"/>
		</linearGradient>
		<linearGradient id="g2" x1="360.6" y1="88.3" x2="38.5" y2="88.3" gradientUnits="userSpaceOnUse">
			<stop offset="0" stop-color="#00d0ff"/>
			<stop offset="1" stop-color="#0076ff"/>
		</linearGradient>
		<linearGradient id="g3" x1="360.6" y1="309.2" x2="38.5" y2="309.2" gradientUnits="userSpaceOnUse">
			<stop offset="0" stop-color="#00d0ff"/>
			<stop offset="1" stop-color="#0076ff"/>
		</linearGradient>
		<linearGradient id="g4" x1="360.5" y1="387" x2="38.5" y2="387" gradientUnits="userSpaceOnUse">
			<stop offset="0" stop-color="#00d0ff"/>
			<stop offset="1" stop-color="#0076ff"/>
		</linearGradient>
		<linearGradient id="g5" x1="360.5" y1="387" x2="38.5" y2="387" gradientUnits="userSpaceOnUse">
			<stop offset="0" stop-color="#00d0ff"/>
			<stop offset="1" stop-color="#0076ff"/>
		</linearGradient>
		<linearGradient id="g6" x1="360.5" y1="387" x2="38.5" y2="387" gradientUnits="userSpaceOnUse">
			<stop offset="0" stop-color="#00d0ff"/>
			<stop offset="1" stop-color="#0076ff"/>
		</linearGradient>
		<linearGradient id="g7" x1="360.5" y1="304.7" x2="38.5" y2="304.7" gradientUnits="userSpaceOnUse">
			<stop offset="0" stop-color="#00d0ff"/>
			<stop offset="1" stop-color="#0076ff"/>
		</linearGradient>
		<linearGradient id="g8" x1="360.5" y1="75.1" x2="38.5" y2="75.1" gradientUnits="userSpaceOnUse">
			<stop offset="0" stop-color="#00d0ff"/>
			<stop offset="1" stop-color="#0076ff"/>
		</linearGradient>
		<linearGradient id="g9" x1="360.5" y1="235.1" x2="38.5" y2="235.1" gradientUnits="userSpaceOnUse">
			<stop offset="0" stop-color="#00d0ff"/>
			<stop offset="1" stop-color="#0076ff"/>
		</linearGradient>
		<linearGradient id="g10" x1="360.5" y1="304.7" x2="38.5" y2="304.7" gradientUnits="userSpaceOnUse">
			<stop offset="0" stop-color="#00d0ff"/>
			<stop offset="1" stop-color="#0076ff"/>
		</linearGradient>
		<linearGradient id="g11" x1="360.5" y1="304.7" x2="38.5" y2="304.7" gradientUnits="userSpaceOnUse">
			<stop offset="0" stop-color="#00d0ff"/>
			<stop offset="1" stop-color="#0076ff"/>
		</linearGradient>
		<linearGradient id="g12" x1="360.5" y1="124.8" x2="38.5" y2="124.8" gradientUnits="userSpaceOnUse">
			<stop offset="0" stop-color="#00d0ff"/>
			<stop offset="1" stop-color="#0076ff"/>
		</linearGradient>
		<linearGradient id="g13" x1="360.5" y1="325.3" x2="38.5" y2="325.3" gradientUnits="userSpaceOnUse">
			<stop offset="0" stop-color="#00d0ff"/>
			<stop offset="1" stop-color="#0076ff"/>
		</linearGradient>
		<linearGradient id="g14" x1="360.5" y1="325.3" x2="38.5" y2="325.3" gradientUnits="userSpaceOnUse">
			<stop offset="0" stop-color="#00d0ff"/>
			<stop offset="1" stop-color="#0076ff"/>
		</linearGradient>
		<linearGradient id="g15" x1="360.5" y1="185.8" x2="38.5" y2="185.8" gradientUnits="userSpaceOnUse">
			<stop offset="0" stop-color="#00d0ff"/>
			<stop offset="1" stop-color="#0076ff"/>
		</linearGradient>
		<linearGradient id="g16" x1="360.5" y1="325.3" x2="38.5" y2="325.3" gradientUnits="userSpaceOnUse">
			<stop offset="0" stop-color="#00d0ff"/>
			<stop offset="1" stop-color="#0076ff"/>
		</linearGradient>
		<linearGradient id="g17" x1="360.5" y1="75.1" x2="38.5" y2="75.1" gradientUnits="userSpaceOnUse">
			<stop offset="0" stop-color="#00d0ff"/>
			<stop offset="1" stop-color="#0076ff"/>
		</linearGradient>
		<linearGradient id="g18" x1="360.5" y1="235.1" x2="38.5" y2="235.1" gradientUnits="userSpaceOnUse">
			<stop offset="0" stop-color="#00d0ff"/>
			<stop offset="1" stop-color="#0076ff"/>
		</linearGradient>
		<linearGradient id="g19" x1="360.5" y1="366.4" x2="38.5" y2="366.4" gradientUnits="userSpaceOnUse">
			<stop offset="0" stop-color="#00d0ff"/>
			<stop offset="1" stop-color="#0076ff"/>
		</linearGradient>
		<linearGradient id="g20" x1="360.5" y1="366.4" x2="38.5" y2="366.4" gradientUnits="userSpaceOnUse">
			<stop offset="0" stop-color="#00d0ff"/>
			<stop offset="1" stop-color="#0076ff"/>
		</linearGradient>
		<linearGradient id="g21" x1="360.5" y1="366.4" x2="38.5" y2="366.4" gradientUnits="userSpaceOnUse">
			<stop offset="0" stop-color="#00d0ff"/>
			<stop offset="1" stop-color="#0076ff"/>
		</linearGradient>
		<linearGradient id="g22" x1="360.5" y1="345.9" x2="38.5" y2="345.9" gradientUnits="userSpaceOnUse">
			<stop offset="0" stop-color="#00d0ff"/>
			<stop offset="1" stop-color="#0076ff"/>
		</linearGradient>
		<linearGradient id="g23" x1="360.6" y1="345.9" x2="38.5" y2="345.9" gradientUnits="userSpaceOnUse">
			<stop offset="0" stop-color="#00d0ff"/>
			<stop offset="1" stop-color="#0076ff"/>
		</linearGradient>
		<linearGradient id="g24" x1="360.5" y1="345.9" x2="38.5" y2="345.9" gradientUnits="userSpaceOnUse">
			<stop offset="0" stop-color="#00d0ff"/>
			<stop offset="1" stop-color="#0076ff"/>
		</linearGradient>
		<linearGradient id="g25" x1="360.6" y1="345.9" x2="38.5" y2="345.9" gradientUnits="userSpaceOnUse">
			<stop offset="0" stop-color="#00d0ff"/>
			<stop offset="1" stop-color="#0076ff"/>
		</linearGradient>
		<linearGradient id="g26" x1="360.6" y1="303.8" x2="38.5" y2="303.8" gradientUnits="userSpaceOnUse">
			<stop offset="0" stop-color="#00d0ff"/>
			<stop offset="1" stop-color="#0076ff"/>
		</linearGradient>
		<linearGradient id="g27" x1="360.6" y1="179.9" x2="38.5" y2="179.9" gradientUnits="userSpaceOnUse">
			<stop offset="0" stop-color="#00d0ff"/>
			<stop offset="1" stop-color="#0076ff"/>
		</linearGradient>
		<linearGradient id="g28" x1="360.6" y1="56.1" x2="38.5" y2="56.1" gradientUnits="userSpaceOnUse">
			<stop offset="0" stop-color="#00d0ff"/>
			<stop offset="1" stop-color="#0076ff"/>
		</linearGradient>
	</defs>
	<style>
		.s0 { fill: url(#g1) } 
		.s1 { fill: url(#g2) } 
		.s2 { fill: url(#g3) } 
		.s3 { fill: url(#g4) } 
		.s4 { fill: url(#g5) } 
		.s5 { fill: url(#g6) } 
		.s6 { fill: url(#g7) } 
		.s7 { fill: url(#g8) } 
		.s8 { fill: url(#g9) } 
		.s9 { fill: url(#g10) } 
		.s10 { fill: url(#g11) } 
		.s11 { fill: url(#g12) } 
		.s12 { fill: url(#g13) } 
		.s13 { fill: url(#g14) } 
		.s14 { fill: url(#g15) } 
		.s15 { fill: url(#g16) } 
		.s16 { fill: url(#g17) } 
		.s17 { fill: url(#g18) } 
		.s18 { fill: url(#g19) } 
		.s19 { fill: url(#g20) } 
		.s20 { fill: url(#g21) } 
		.s21 { fill: url(#g22) } 
		.s22 { fill: url(#g23) } 
		.s23 { fill: url(#g24) } 
		.s24 { fill: url(#g25) } 
		.s25 { fill: url(#g26) } 
		.s26 { fill: url(#g27) } 
		.s27 { fill: url(#g28) } 
	</style>
	<g id="_Artboards_">
	</g>
	<g id="Layer 1">
		<g id="&lt;Group&gt;">
			<path id="&lt;Path&gt;" class="s0" d="m52.4 111.1h-10.7v137.1h10.7z"/>
			<path id="&lt;Path&gt;" class="s1" d="m52.4 37h-10.7v51.3h10.7z"/>
			<path id="&lt;Path&gt;" class="s2" d="m52.4 271.1h-10.7v38.1h10.7z"/>
			<path id="&lt;Path&gt;" class="s3" d="m317.4 387h38.1v-10.7h-38.1z"/>
			<path id="&lt;Path&gt;" class="s4" d="m157.4 387h137.1v-10.7h-137.1z"/>
			<path id="&lt;Path&gt;" class="s5" d="m52.4 332h-10.7v55h92.8v-10.7h-82.1z"/>
			<path id="&lt;Path&gt;" class="s6" d="m225 294.1h-90.3v-36.2h-10.7v46.8h101z"/>
			<path id="&lt;Path&gt;" class="s7" d="m134.7 37h-10.7v38.1h10.7z"/>
			<path id="&lt;Path&gt;" class="s8" d="m134.7 98h-10.7v137.1h10.7z"/>
			<path id="&lt;Path&gt;" class="s9" d="m334.9 294.1h-26.1v10.6h26.1z"/>
			<path id="&lt;Path&gt;" class="s10" d="m285.9 294.1h-38.1v10.6h38.1z"/>
			<path id="&lt;Path&gt;" class="s11" d="m114.1 37h-10.7v87.8h10.7z"/>
			<path id="&lt;Path&gt;" class="s12" d="m157.4 325.3h137.1v-10.7h-137.1z"/>
			<path id="&lt;Path&gt;" class="s13" d="m134.5 314.6h-20.4v-106h-10.7v116.7h31.1z"/>
			<path id="&lt;Path&gt;" class="s14" d="m114.1 147.7h-10.7v38.1h10.7z"/>
			<path id="&lt;Path&gt;" class="s15" d="m317.4 314.6v10.7h38.1v-10.7z"/>
			<path id="&lt;Path&gt;" class="s16" d="m73 37h-10.7v38.1h10.7z"/>
			<path id="&lt;Path&gt;" class="s17" d="m73 98h-10.7v137.1h10.7z"/>
			<path id="&lt;Path&gt;" class="s18" d="m162.5 366.4v-10.6h-38.1v10.6z"/>
			<path id="&lt;Path&gt;" class="s19" d="m101.6 355.8h-28.6v-97.9h-10.7v108.5h39.3z"/>
			<path id="&lt;Path&gt;" class="s20" d="m322.5 355.8h-137.1v10.6h137.1z"/>
			<path id="&lt;Path&gt;" class="s21" d="m314.3 335.2h-19v10.7h19z"/>
			<path id="&lt;Path&gt;" class="s22" d="m195 335.2h-75.2v10.7h75.2z"/>
			<path id="&lt;Path&gt;" class="s23" d="m207.5 335.2v10.7h75.2v-10.7z"/>
			<path id="&lt;Path&gt;" class="s24" d="m107.2 335.2h-13.7v-13.7h-10.6v24.4h24.3z"/>
			<path id="&lt;Path&gt;" class="s25" d="m93.5 197.6h-10.6v106.2h10.6z"/>
			<path id="&lt;Path&gt;" class="s26" d="m93.5 73.8h-10.6v106.1h10.6z"/>
			<path id="&lt;Path&gt;" class="s27" d="m93.5 37h-10.6v19.1h10.6z"/>
		</g>
	</g>
</svg>